<svg width="34" height="23" viewBox="0 0 34 23" fill="none" xmlns="http://www.w3.org/2000/svg">
<path d="M0.125 20.2812L2.51562 19.3125V4.21875L0.125 3.25V0.59375L9.875 0.4375V3.25L7.48438 4.21875V9.71875H9.65625L15 0.59375L20.9219 0.4375V3.25L17.875 4.15625L13.6875 11.125L19.6406 19.3125L22.0469 20.2812V23H12.2812V20.2812L14.2031 19.3125L9.8125 13.2344H7.48438V19.3125L9.875 20.2812V23H0.125V20.2812ZM23.3125 20.2812L25.7188 19.3125V4.28125L23.3125 3.3125V0.59375L33.0781 0.4375V3.3125L30.6719 4.28125V19.3125L33.0781 20.2812V23H23.3125V20.2812Z" fill="black"/>
</svg>
